<?xml version="1.0" encoding="utf-8"?>
<svg xmlns="http://www.w3.org/2000/svg" height="256" width="256" viewBox="0 0 256 256">
  <g>
    <rect height="256" width="256" fill="#A0A0A0" />
    <path id="path1" transform="rotate(360,128,128) translate(54.1078443527222,49) scale(-4.9375,4.9375)  " fill="#B6B6B6" d="M18.595993,30.350983L28.645996,30.350983 28.645996,31.287994 18.380005,31.287994C18.528992,31.042999 18.612,30.781982 18.612,30.510986 18.612,30.457001 18.604004,30.404999 18.595993,30.350983z M1.1579971,30.350983L11.673996,30.350983C11.668991,30.404999 11.660995,30.457001 11.660995,30.510986 11.660995,30.781982 11.73999,31.042999 11.878998,31.287994L1.1579971,31.287994z M0,10.828003L29.931,10.828003 29.931,24.515991 16.190994,24.515991 16.190994,28.639984 16.199997,28.645996C16.688004,28.975006 17.007996,29.53299 17.007996,30.166992 17.007996,31.179993 16.186996,32 15.173996,32 14.162003,32 13.341003,31.179993 13.341003,30.166992 13.341003,29.53299 13.662003,28.975006 14.149002,28.645996L14.158005,28.640991 14.158005,24.515991 0,24.515991z M0,0L12.056992,0 12.056992,3.0830078 29.931,3.0830078 29.931,6.8150024 0,6.8150024 0,3.6929932 0,3.0830078z" />
  </g>
</svg>

